<svg width="21" height="20" viewBox="0 0 21 20" fill="none" xmlns="http://www.w3.org/2000/svg">
<g clip-path="url(#clip0_243_214)">
<path d="M20.4889 10.1873C20.4889 9.36792 20.4209 8.76998 20.2736 8.1499H10.6987V11.8482H16.3189C16.2057 12.7673 15.5938 14.1514 14.234 15.0815L14.2149 15.2053L17.2424 17.4972L17.4521 17.5176C19.3784 15.7791 20.4889 13.2213 20.4889 10.1873Z" fill="#4285F4"/>
<path d="M10.6986 19.9312C13.4521 19.9312 15.7637 19.0453 17.4521 17.5173L14.234 15.0812C13.3728 15.6681 12.217 16.0777 10.6986 16.0777C8.00181 16.0777 5.71291 14.3393 4.89698 11.9365L4.77738 11.9464L1.62942 14.3271L1.58826 14.439C3.26527 17.6944 6.70999 19.9312 10.6986 19.9312Z" fill="#34A853"/>
<path d="M4.89711 11.9368C4.68182 11.3167 4.55722 10.6523 4.55722 9.96583C4.55722 9.27927 4.68182 8.61492 4.88578 7.99484L4.88008 7.86278L1.69267 5.44385L1.58839 5.49232C0.89721 6.84324 0.50061 8.36026 0.50061 9.96583C0.50061 11.5714 0.89721 13.0884 1.58839 14.4393L4.89711 11.9368Z" fill="#FBBC05"/>
<path d="M10.6986 3.85336C12.6136 3.85336 13.9053 4.66168 14.6419 5.33718L17.5201 2.59107C15.7524 0.985496 13.4521 0 10.6986 0C6.70999 0 3.26527 2.23672 1.58826 5.49214L4.88565 7.99466C5.71291 5.59183 8.00181 3.85336 10.6986 3.85336Z" fill="#EB4335"/>
</g>
<defs>
<clipPath id="clip0_243_214">
<rect width="20" height="20" fill="white" transform="translate(0.499512)"/>
</clipPath>
</defs>
</svg>
