<svg width="24" height="24" viewBox="0 0 24 24" fill="none" xmlns="http://www.w3.org/2000/svg">
<path d="M21.7961 20.2039L17.3439 15.7499C18.6788 14.0103 19.302 11.8281 19.0871 9.64594C18.8723 7.46377 17.8354 5.44503 16.1868 3.99924C14.5383 2.55344 12.4015 1.78886 10.21 1.86058C8.01841 1.93231 5.9362 2.83497 4.3857 4.38546C2.83521 5.93595 1.93255 8.01817 1.86083 10.2097C1.7891 12.4013 2.55369 14.538 3.99948 16.1866C5.44527 17.8352 7.46401 18.872 9.64618 19.0869C11.8284 19.3018 14.0106 18.6785 15.7501 17.3436L20.2061 21.8005C20.3107 21.9051 20.4349 21.9882 20.5717 22.0448C20.7084 22.1014 20.8549 22.1306 21.0029 22.1306C21.1509 22.1306 21.2975 22.1014 21.4342 22.0448C21.5709 21.9882 21.6952 21.9051 21.7998 21.8005C21.9044 21.6958 21.9875 21.5716 22.0441 21.4349C22.1007 21.2982 22.1299 21.1516 22.1299 21.0036C22.1299 20.8556 22.1007 20.7091 22.0441 20.5724C21.9875 20.4356 21.9044 20.3114 21.7998 20.2067L21.7961 20.2039ZM4.12512 10.4999C4.12512 9.23902 4.499 8.00647 5.1995 6.95811C5.89999 5.90975 6.89563 5.09265 8.06051 4.61014C9.22539 4.12763 10.5072 4.00138 11.7438 4.24737C12.9804 4.49335 14.1164 5.10051 15.0079 5.99207C15.8995 6.88363 16.5066 8.01954 16.7526 9.25617C16.9986 10.4928 16.8724 11.7746 16.3898 12.9395C15.9073 14.1044 15.0902 15.1 14.0419 15.8005C12.9935 16.501 11.761 16.8749 10.5001 16.8749C8.80989 16.8731 7.1894 16.2009 5.99423 15.0058C4.79906 13.8106 4.12685 12.1901 4.12512 10.4999Z" fill="black" fill-opacity="0.4"/>
</svg>
